<svg id="visual" viewBox="0 0 900 600" width="900" height="600" xmlns="http://www.w3.org/2000/svg" xmlns:xlink="http://www.w3.org/1999/xlink" version="1.1"><rect x="0" y="0" width="900" height="600" fill="#310a0a"></rect><path d="M372 0L342.2 12.5C312.3 25 252.7 50 246.5 75C240.3 100 287.7 125 293.3 150C299 175 263 200 252.7 225C242.3 250 257.7 275 282.7 300C307.7 325 342.3 350 333 375C323.7 400 270.3 425 250.7 450C231 475 245 500 251.3 525C257.7 550 256.3 575 255.7 587.5L255 600L0 600L0 587.5C0 575 0 550 0 525C0 500 0 475 0 450C0 425 0 400 0 375C0 350 0 325 0 300C0 275 0 250 0 225C0 200 0 175 0 150C0 125 0 100 0 75C0 50 0 25 0 12.5L0 0Z" fill="#ff0000" stroke-linecap="round" stroke-linejoin="miter"></path></svg>